Seven Years in Tibet is a 1997 film based on the book of the same name written by Austrian mountaineer Heinrich Harrer on his experiences in Tibet between 1944 and 1951 during the Second World War, the interim period, and the Chinese People's Liberation Army's invasion of Tibet in 1950. The film was directed by Jean-Jacques Annaud and starred Brad Pitt and David Thewlis. The score was composed by John Williams and features cellist Yo-Yo Ma.


Movies : Drama : HD 1080p / 1080i : English





Format : BDAV
Format/Info : Blu-ray Video
File size : 3.99 GiB
Duration : 2h 16mn
Overall bit rate : 4 194 Kbps
Maximum Overall bit rate : 35.5 Mbps

Video
ID : 4113 (0x1011)
Menu ID : 1 (0x1)
Format : AVC
Format/Info : Advanced Video Codec
Format profile : High@L4.0
Format settings, CABAC : Yes
Format settings, ReFrames : 3 frames
Codec ID : 27
Duration : 2h 16mn
Bit rate mode : Variable
Bit rate : 3 379 Kbps
Nominal bit rate : 3 137 Kbps
Maximum bit rate : 25.0 Mbps
Width : 1 920 pixels
Height : 1 080 pixels
Display aspect ratio : 16:9
Frame rate : 23.976 fps
Color space : YUV
Chroma subsampling : 4:2:0
Bit depth : 8 bits
Scan type : Progressive
Bits/(Pixel*Frame) : 0.068
Stream size : 3.21 GiB (81%)
Writing library : x264
Audio
ID : 4352 (0x1100)
Menu ID : 1 (0x1)
Format : AC-3
Format/Info : Audio Coding 3
Mode extension : CM (complete main)
Codec ID : 129
Duration : 2h 16mn
Bit rate mode : Constant
Bit rate : 640 Kbps
Channel(s) : 6 channels
Channel positions : Front: L C R, Side: L R, LFE
Sampling rate : 48.0 KHz
Bit depth : 16 bits
Compression mode : Lossy
Stream size : 623 MiB (15%)
Language : English

